<?xml version="1.0" standalone="no"?>
<!DOCTYPE svg PUBLIC "-//W3C//DTD SVG 20010904//EN"
 "http://www.w3.org/TR/2001/REC-SVG-20010904/DTD/svg10.dtd">
<svg version="1.0" xmlns="http://www.w3.org/2000/svg"
 width="754.000000pt" height="754.000000pt" viewBox="0 0 754.000000 754.000000"
 preserveAspectRatio="xMidYMid meet">
<metadata>
Created by potrace 1.11, written by Peter Selinger 2001-2013
</metadata>
<g transform="translate(0.000000,754.000000) scale(0.100000,-0.100000)"
fill="#000000" stroke="none">
<path d="M3667 7534 c-1 -1 -56 -4 -122 -8 -66 -3 -133 -8 -150 -10 -16 -2
-57 -7 -90 -10 -292 -32 -740 -151 -1005 -268 -554 -246 -992 -565 -1377
-1003 -395 -450 -681 -1016 -829 -1640 -13 -56 -41 -213 -54 -310 -6 -44 -13
-93 -15 -110 -10 -72 -19 -263 -19 -415 0 -265 16 -430 70 -725 82 -458 314
-1001 602 -1415 412 -591 1012 -1071 1672 -1338 275 -111 622 -206 855 -236
17 -2 57 -7 90 -11 33 -3 71 -9 85 -11 161 -26 635 -21 860 10 254 34 489 88
720 165 773 258 1434 755 1908 1435 151 218 281 458 387 716 61 149 147 411
170 520 2 8 8 35 14 60 21 95 47 238 56 310 3 30 8 62 10 70 3 13 7 53 21 225
4 51 4 429 0 475 -2 19 -7 71 -10 115 -4 44 -9 91 -11 105 -3 24 -11 78 -21
145 -22 148 -85 406 -141 574 -218 659 -590 1212 -1139 1691 -338 296 -810
559 -1275 710 -129 43 -391 109 -489 124 -19 3 -46 8 -60 10 -37 7 -89 14
-145 21 -27 3 -63 8 -80 10 -70 10 -479 26 -488 19z m423 -138 c19 -3 58 -7
85 -10 68 -7 197 -25 215 -31 8 -2 31 -6 50 -9 54 -9 93 -16 112 -22 9 -3 26
-7 37 -9 450 -99 926 -316 1313 -598 69 -50 139 -103 155 -116 15 -13 57 -49
93 -79 100 -85 346 -337 431 -443 275 -339 486 -716 624 -1111 76 -217 137
-471 165 -678 6 -47 13 -96 15 -109 26 -150 25 -618 0 -826 -6 -51 -17 -129
-20 -146 -2 -9 -6 -32 -9 -50 -9 -59 -45 -229 -62 -292 -9 -34 -17 -69 -19
-77 -10 -49 -96 -295 -143 -410 -181 -439 -437 -822 -777 -1166 -301 -304
-606 -525 -980 -709 -311 -153 -679 -274 -975 -320 -19 -3 -46 -7 -60 -10 -23
-4 -47 -7 -142 -20 -195 -27 -707 -27 -858 0 -14 2 -46 7 -72 9 -391 46 -887
212 -1268 425 -115 64 -364 226 -429 278 -211 171 -345 293 -477 435 -538 579
-881 1350 -951 2139 -16 169 -8 647 12 770 2 13 11 74 20 134 9 61 25 146 35
190 11 45 21 92 23 105 9 49 57 207 96 321 433 1254 1539 2188 2841 2398 174
28 183 29 290 37 52 3 97 8 99 10 5 5 492 -4 531 -10z"/>
<path d="M3808 6902 c-1 -5 -50 -47 -108 -93 -288 -231 -609 -384 -950 -453
-73 -15 -92 -17 -235 -35 -38 -5 -155 -8 -260 -6 -177 3 -236 6 -325 20 -19 3
-49 8 -66 10 -17 2 -69 11 -114 19 -46 9 -84 15 -85 14 -3 -4 -106 -201 -201
-385 l-78 -152 21 -43 c25 -49 129 -246 199 -376 80 -150 118 -221 219 -412
54 -102 109 -205 122 -229 26 -48 26 -52 4 -249 -19 -162 -21 -176 -27 -227
-3 -27 -7 -61 -9 -75 -2 -14 -7 -54 -10 -90 -3 -36 -8 -72 -10 -80 -2 -8 -7
-49 -10 -90 -3 -41 -8 -82 -10 -90 -2 -8 -6 -42 -10 -75 -3 -33 -8 -76 -10
-95 -3 -19 -7 -55 -10 -80 -9 -92 -15 -146 -20 -175 -61 -382 28 -704 257
-921 85 -81 114 -100 453 -294 17 -9 54 -31 83 -49 29 -17 55 -31 58 -31 3 0
17 -9 32 -19 24 -17 781 -457 892 -519 25 -13 50 -28 55 -32 6 -4 28 -18 50
-30 22 -12 54 -30 71 -41 l30 -18 324 194 c178 107 325 195 326 195 1 0 31 18
65 39 144 88 743 446 753 450 6 2 49 29 96 59 244 157 387 403 425 729 12 94
11 130 -1 238 -7 61 -16 139 -19 175 -3 36 -7 81 -10 100 -2 19 -7 64 -10 100
-3 36 -7 81 -10 100 -2 19 -7 62 -10 95 -3 33 -7 76 -10 95 -7 53 -14 118 -20
190 -3 36 -8 81 -10 100 -2 19 -7 69 -11 110 -3 41 -8 82 -9 91 -11 55 -16
191 -8 202 6 6 61 111 123 232 62 121 134 261 160 310 26 50 96 185 155 300
59 116 112 215 116 220 8 10 -10 46 -180 375 -85 165 -92 175 -118 174 -27 -1
-81 -10 -113 -19 -8 -2 -37 -7 -65 -11 -27 -3 -59 -8 -70 -10 -127 -24 -508
-24 -625 1 -14 3 -47 7 -75 11 -27 3 -52 7 -56 10 -4 2 -24 6 -45 10 -40 6
-226 59 -259 73 -11 5 -47 19 -80 31 -94 36 -284 133 -392 201 -82 52 -158
106 -308 222 -13 9 -25 13 -27 9z"/>
<path d="M1206 2153 c-5 -6 14 -42 36 -68 5 -5 83 -115 173 -242 l164 -233
-195 -141 c-107 -78 -194 -144 -194 -147 0 -3 3 -3 6 0 3 3 29 0 57 -8 29 -7
66 -15 82 -18 17 -3 73 -15 125 -26 52 -11 109 -23 125 -26 17 -3 46 -9 65
-14 19 -5 49 -11 65 -14 68 -12 85 -18 84 -29 -1 -7 -1 -42 0 -78 l1 -67 58
-27 c31 -15 118 -54 192 -87 74 -32 144 -63 155 -68 182 -81 706 -240 875
-266 19 -3 42 -7 50 -9 28 -8 187 -32 260 -41 30 -3 66 -7 80 -10 46 -7 264
-17 380 -18 119 0 372 12 393 19 7 2 39 6 72 9 33 4 71 8 85 11 14 3 40 7 59
10 18 2 41 7 50 9 9 3 36 8 61 11 76 11 379 92 501 134 221 76 430 166 634
271 l110 57 3 77 c3 69 5 76 25 81 31 7 357 76 387 81 14 3 63 13 110 22 l85
18 -123 89 c-68 50 -152 110 -187 135 -35 25 -67 48 -71 53 -6 6 63 119 101
164 5 7 25 34 43 60 18 26 78 111 132 188 54 77 97 141 97 142 -1 1 -32 -5
-68 -12 -36 -8 -77 -16 -90 -19 -13 -3 -35 -7 -49 -10 -66 -14 -76 -17 -95
-20 -11 -3 -63 -14 -115 -25 -52 -11 -106 -22 -120 -25 -27 -4 -75 -15 -102
-23 -14 -3 -18 -15 -18 -53 0 -55 6 -50 -200 -157 -557 -288 -1119 -433 -1695
-436 -113 0 -344 11 -380 18 -11 2 -43 7 -71 9 -28 3 -105 14 -170 25 -159 27
-170 30 -239 48 -33 8 -70 17 -82 19 -42 8 -259 74 -373 113 -138 47 -304 114
-454 183 -198 90 -247 117 -245 136 1 9 1 34 0 54 -1 34 -4 38 -38 47 -21 6
-54 13 -73 16 -19 3 -51 10 -70 15 -19 5 -48 11 -65 14 -56 9 -137 26 -143 30
-4 2 -23 7 -42 10 -19 3 -60 10 -90 16 -30 6 -66 14 -79 16 -14 3 -28 7 -31 9
-4 3 -10 2 -14 -2z m4528 -701 l4 -351 -146 -74 c-244 -122 -505 -223 -754
-293 -69 -19 -139 -37 -154 -40 -15 -3 -60 -12 -99 -20 -38 -8 -85 -17 -104
-20 -18 -3 -42 -7 -51 -9 -10 -2 -40 -6 -67 -10 -26 -4 -59 -9 -73 -11 -124
-19 -600 -27 -760 -12 -264 25 -557 82 -825 162 -112 33 -275 87 -320 106 -11
4 -60 24 -110 44 -81 31 -202 84 -337 145 -26 12 -49 25 -52 29 -3 4 -6 163
-8 352 -2 300 -1 345 12 342 8 -2 38 -14 65 -27 43 -20 106 -49 220 -100 191
-86 641 -238 774 -261 14 -3 51 -11 81 -19 30 -7 71 -16 90 -19 19 -3 46 -8
60 -11 291 -59 712 -75 1055 -41 329 34 760 150 1090 294 33 14 137 65 230
112 94 47 171 85 172 85 2 -1 5 -159 7 -353z"/>
<path d="M2288 1425 c2 -14 -2 -33 -9 -42 -12 -14 -12 -15 0 -9 10 7 12 2 7
-20 -3 -16 -8 -54 -11 -84 l-7 -55 39 55 c52 74 61 92 24 50 l-31 -35 5 30 c3
17 9 51 14 77 6 37 5 48 -6 52 -26 10 -30 7 -25 -19z"/>
<path d="M2374 1378 c-4 -13 -9 -30 -10 -38 -4 -24 -48 -114 -59 -122 -6 -5
-5 -12 5 -18 21 -14 40 -12 35 3 -6 14 46 142 68 167 17 20 12 30 -14 30 -10
0 -21 -10 -25 -22z"/>
<path d="M5205 1391 c-3 -5 -1 -12 5 -16 12 -8 81 -154 83 -176 1 -14 5 -15
26 -5 16 7 20 12 10 14 -8 1 -34 45 -58 97 -42 92 -53 106 -66 86z"/>
<path d="M5123 1363 c-9 -3 -7 -11 7 -26 11 -11 20 -28 20 -37 0 -9 4 -20 8
-25 5 -6 17 -31 26 -57 10 -27 22 -48 27 -48 6 0 8 -4 5 -9 -3 -4 6 -6 19 -3
14 2 26 7 26 11 11 50 3 78 -34 118 -15 16 -24 20 -37 13 -14 -8 -19 -2 -30
30 -13 41 -15 42 -37 33z m105 -118 c12 -25 22 -52 22 -60 0 -29 -21 -14 -40
28 -36 79 -19 109 18 32z"/>
<path d="M5311 1346 c-16 -19 2 -86 28 -110 24 -22 55 -17 59 9 3 19 2 19 -9
2 -10 -18 -12 -18 -30 -1 -25 22 -24 38 2 55 l20 14 -21 23 c-24 26 -33 27
-49 8z m39 -33 c0 -24 -25 -9 -28 17 -3 21 -2 22 12 11 9 -7 16 -20 16 -28z"/>
<path d="M5077 1337 c-3 -8 0 -21 8 -27 19 -15 27 3 11 25 -11 16 -14 16 -19
2z"/>
<path d="M2250 1323 c0 -6 -11 -26 -24 -46 -23 -33 -23 -35 -5 -40 10 -3 17
-1 14 3 -3 5 1 26 10 46 8 20 13 39 10 42 -3 3 -5 1 -5 -5z"/>
<path d="M2410 1288 c-41 -44 -45 -128 -6 -128 40 0 83 103 56 135 -17 20 -26
19 -50 -7z m36 -33 c-7 -40 -34 -87 -46 -80 -18 11 19 115 41 115 6 0 8 -14 5
-35z"/>
<path d="M2526 1295 c-3 -8 -12 -15 -20 -15 -9 0 -13 -6 -10 -14 3 -7 -2 -30
-10 -51 -9 -21 -16 -48 -16 -61 0 -35 25 -29 26 5 1 41 24 91 40 91 8 0 14 5
14 10 0 6 -4 10 -9 10 -5 0 -7 9 -4 20 6 23 -2 27 -11 5z"/>
<path d="M2585 1267 c-10 -11 -20 -28 -21 -37 -1 -8 -9 -35 -18 -59 -21 -56
-20 -61 6 -61 16 0 19 3 11 11 -15 15 19 101 43 110 11 4 13 8 5 8 -9 1 -11 9
-7 26 8 30 7 30 -19 2z"/>
<path d="M5108 1265 c-3 -3 8 -31 24 -62 16 -31 26 -63 24 -70 -4 -10 -1 -11
12 -4 17 9 17 14 -12 75 -29 63 -36 72 -48 61z"/>
<path d="M2815 1135 c0 -63 1 -115 2 -115 3 0 35 59 50 93 7 15 10 27 8 27 -2
0 -11 -12 -19 -27 -13 -26 -14 -24 -9 42 3 38 10 73 16 77 7 4 10 8 7 9 -3 0
-16 3 -30 5 l-25 4 0 -115z"/>
<path d="M5053 1238 c-13 -22 -12 -36 5 -52 10 -8 27 -24 40 -36 12 -11 20
-26 16 -32 -5 -7 -14 -3 -27 13 -15 17 -18 19 -14 6 4 -10 7 -22 7 -27 0 -4 6
-7 13 -6 57 8 46 77 -15 99 -10 4 -18 13 -18 22 0 18 12 19 29 3 10 -11 11
-10 6 5 -8 20 -30 23 -42 5z"/>
<path d="M4767 1233 c-12 -3 -15 -8 -9 -16 17 -21 59 -152 57 -181 -1 -23 3
-26 20 -22 11 3 25 6 30 6 6 0 4 4 -4 9 -8 5 -20 28 -27 50 -11 37 -10 41 7
46 26 9 35 53 18 84 -15 26 -51 35 -92 24z m62 -27 c13 -24 12 -65 -2 -69 -11
-2 -38 73 -31 85 9 14 20 9 33 -16z"/>
<path d="M2631 1211 c-28 -28 -43 -88 -28 -112 16 -27 37 -20 64 20 25 37 30
80 11 99 -16 16 -25 15 -47 -7z m34 -33 c-10 -47 -28 -83 -40 -78 -20 10 9
110 32 110 11 0 13 -7 8 -32z"/>
<path d="M2883 1140 c-1 -49 -5 -101 -7 -115 -6 -33 -2 -32 23 9 22 35 27 51
13 42 -4 -2 -5 25 -1 61 4 36 12 69 19 73 8 5 7 9 -5 14 -37 14 -40 7 -42 -84z"/>
<path d="M4986 1223 c-3 -3 -6 -19 -6 -35 0 -22 8 -33 35 -49 19 -12 35 -24
35 -28 0 -19 -16 -19 -37 0 l-23 22 13 -27 c16 -35 51 -32 55 6 3 26 0 30 -48
67 -14 11 -22 23 -18 27 4 4 14 1 23 -6 10 -8 15 -9 15 -2 0 14 -35 34 -44 25z"/>
<path d="M2963 1198 c2 -7 -6 -34 -20 -60 -13 -27 -21 -48 -18 -48 2 0 16 22
30 49 28 56 45 72 45 42 0 -12 5 -21 10 -21 9 0 13 20 8 37 -2 4 -16 9 -32 11
-20 2 -27 0 -23 -10z"/>
<path d="M4899 1184 c-14 -18 -6 -77 16 -111 25 -37 59 -28 63 17 7 64 -49
130 -79 94z m49 -47 c19 -48 21 -67 7 -68 -15 -1 -40 51 -44 90 -4 44 14 33
37 -22z"/>
<path d="M2718 1184 c-5 -4 -8 -16 -8 -28 0 -14 3 -17 11 -9 6 6 9 19 7 28 -1
9 -6 13 -10 9z"/>
<path d="M3113 1158 c0 -25 -30 -169 -40 -194 -3 -8 1 -14 9 -14 13 0 33 61
42 130 2 14 7 42 11 63 6 29 4 37 -7 37 -8 0 -14 -10 -15 -22z"/>
<path d="M4494 1117 c0 -26 3 -42 6 -37 4 6 12 -1 18 -15 15 -33 15 -35 -3
-35 -8 0 -15 5 -15 12 0 6 -3 8 -6 5 -11 -11 16 -36 32 -30 16 6 38 -42 29
-65 -4 -10 0 -12 11 -8 8 3 22 6 30 6 13 0 12 5 -4 28 -11 15 -30 52 -43 83
-13 30 -31 66 -40 79 -16 24 -16 23 -15 -23z"/>
<path d="M3045 1126 c-11 -13 -20 -37 -21 -57 0 -19 -3 -49 -7 -67 -5 -25 -3
-34 9 -39 8 -3 21 0 27 7 9 10 9 11 0 6 -6 -3 -13 0 -15 6 -7 21 14 92 31 106
12 10 13 15 3 21 -7 4 -10 15 -6 24 8 22 4 20 -21 -7z"/>
<path d="M3266 1121 c-37 -41 -50 -136 -25 -182 24 -45 92 -26 97 27 1 16 7
31 12 32 20 7 9 17 -20 18 -26 1 -28 -1 -19 -17 7 -14 6 -27 -3 -46 -28 -57
-52 -29 -50 59 2 80 50 146 75 102 6 -10 12 -25 13 -32 5 -27 14 -25 14 3 0
50 -60 73 -94 36z"/>
<path d="M2980 1106 c0 -12 -6 -44 -14 -69 -9 -30 -10 -49 -4 -53 13 -8 16 -4
22 31 3 17 10 46 16 65 5 19 10 36 10 36 0 1 -7 4 -15 8 -11 4 -15 -1 -15 -18z"/>
<path d="M4669 1109 c-13 -26 -3 -87 18 -111 17 -19 53 -24 53 -8 0 6 -7 10
-15 10 -17 0 -39 36 -30 50 3 6 13 10 21 10 20 0 17 34 -4 53 -24 22 -29 21
-43 -4z m41 -25 c0 -8 -7 -14 -15 -14 -10 0 -15 10 -15 26 0 22 2 25 15 14 8
-7 15 -19 15 -26z"/>
<path d="M3526 1086 c2 -33 -7 -59 -20 -57 -20 3 -25 -2 -35 -30 -6 -18 -11
-43 -11 -56 0 -32 18 -65 31 -57 7 4 7 10 0 18 -10 12 -6 99 5 118 17 26 25
-43 13 -108 -3 -20 2 -31 14 -31 8 0 13 15 13 41 0 23 3 76 7 119 6 60 5 77
-5 77 -9 0 -13 -12 -12 -34z"/>
<path d="M4017 1103 c-7 -6 -36 -9 -113 -12 -28 -1 -31 -4 -32 -33 0 -28 1
-30 8 -12 9 24 28 39 37 31 3 -3 7 -47 10 -97 4 -72 2 -94 -8 -101 -9 -6 0 -9
26 -9 27 0 36 3 26 9 -10 7 -15 37 -19 105 -4 84 -2 96 12 96 9 0 21 -10 26
-22 8 -22 9 -21 9 6 1 16 4 26 8 22 8 -7 11 -39 14 -143 2 -64 5 -73 21 -73
11 0 16 5 13 10 -4 6 -8 32 -11 59 -3 35 0 52 11 61 15 13 19 -8 17 -101 0
-15 5 -26 13 -26 11 0 13 14 9 65 -5 76 -10 85 -35 79 -11 -3 -19 0 -20 6 -1
7 -2 26 -3 44 -2 35 -9 47 -19 36z"/>
<path d="M4110 1091 c0 -11 5 -23 10 -26 6 -4 10 5 10 19 0 14 -4 26 -10 26
-5 0 -10 -9 -10 -19z"/>
<path d="M4591 1101 c-8 -5 -9 -11 -3 -14 5 -4 15 -34 22 -67 8 -38 18 -60 26
-60 16 0 17 5 5 28 -5 9 -11 33 -14 53 -6 49 -19 70 -36 60z"/>
<path d="M4620 1101 c0 -5 7 -14 15 -21 13 -10 15 -9 15 9 0 12 -6 21 -15 21
-8 0 -15 -4 -15 -9z"/>
<path d="M2680 1080 c0 -11 4 -20 9 -20 11 0 22 26 14 34 -12 12 -23 5 -23
-14z"/>
<path d="M3652 1061 c-14 -44 -15 -65 -2 -36 8 18 9 17 9 -7 1 -16 1 -31 2
-35 0 -4 -4 -9 -10 -11 -6 -2 -11 5 -12 15 0 10 -5 3 -10 -16 -6 -18 -8 -36
-5 -39 3 -3 6 2 6 11 0 22 40 18 41 -5 1 -10 2 -24 3 -30 1 -7 -2 -19 -7 -25
-7 -10 3 -13 44 -13 l54 0 -2 107 c-1 60 -2 111 -3 116 0 4 -6 7 -12 7 -10 0
-13 -28 -13 -107 0 -88 -3 -108 -15 -108 -11 0 -19 26 -30 100 -22 133 -22
133 -38 76z"/>
<path d="M3788 1087 c10 -11 7 -177 -3 -204 -2 -7 3 -13 13 -13 15 0 17 14 19
113 1 106 0 113 -19 114 -14 1 -17 -1 -10 -10z"/>
<path d="M3136 1079 c6 -8 10 -18 9 -24 -6 -40 -19 -92 -26 -100 -5 -7 -1 -11
10 -12 16 -1 20 9 27 55 11 83 11 86 -11 91 -15 2 -17 0 -9 -10z"/>
<path d="M4328 1054 c-12 -11 4 -33 19 -27 11 4 14 2 9 -5 -3 -6 7 -26 24 -45
30 -34 38 -57 21 -57 -5 0 -15 10 -24 23 l-15 22 5 -26 c3 -19 11 -26 25 -25
42 2 41 73 -1 96 -12 6 -21 17 -21 25 0 20 17 19 30 -2 7 -11 10 -12 7 -4 -6
25 -36 38 -47 21 -8 -12 -12 -12 -18 -2 -5 7 -11 10 -14 6z"/>
<path d="M3385 1026 c-33 -49 -23 -126 15 -126 40 0 66 103 34 134 -21 22 -31
20 -49 -8z m39 -43 c-11 -59 -15 -73 -24 -73 -14 0 -13 87 2 113 11 21 11 21
19 2 4 -11 5 -30 3 -42z"/>
<path d="M4271 1031 c-14 -26 -13 -51 3 -79 12 -23 12 -23 36 -4 22 18 23 23
15 58 -11 44 -38 56 -54 25z m39 -47 c0 -13 -4 -26 -10 -29 -5 -3 -10 -5 -11
-3 0 2 -2 23 -5 48 -4 42 -3 44 11 26 8 -11 15 -30 15 -42z"/>
<path d="M4208 1034 c-4 -4 -3 -15 3 -25 5 -11 11 -42 12 -69 2 -39 6 -50 19
-50 14 0 15 5 8 30 -10 36 -10 34 -10 63 0 27 -22 62 -32 51z"/>
<path d="M4119 1023 c-1 -5 -1 -11 0 -15 8 -59 8 -114 -2 -120 -7 -5 -1 -8 15
-8 25 0 26 2 18 31 -5 17 -9 34 -8 38 3 29 -4 81 -12 81 -5 0 -11 -3 -11 -7z"/>
<path d="M4159 1017 c7 -9 13 -43 14 -77 2 -48 5 -60 17 -57 8 2 13 10 11 18
-2 8 -5 39 -6 69 -1 50 -4 55 -25 58 -21 3 -22 2 -11 -11z"/>
<path d="M4494 956 c0 -15 6 -26 13 -26 7 0 13 4 13 8 0 5 -6 16 -13 26 -12
16 -13 16 -13 -8z"/>
<path d="M3611 908 c-1 -10 -7 -18 -13 -18 -9 0 -9 -3 1 -9 8 -5 21 -7 28 -4
8 3 10 9 5 12 -5 3 -12 13 -15 21 -4 12 -6 11 -6 -2z"/>
<path d="M4270 912 c0 -5 3 -12 8 -16 4 -4 7 -24 7 -44 0 -33 3 -37 27 -40 19
-2 30 3 38 17 10 20 10 65 0 75 -10 9 -80 16 -80 8z m77 -47 c2 -6 -3 -20 -11
-30 -13 -18 -16 -19 -31 -4 -21 20 -9 51 18 47 11 -2 22 -8 24 -13z"/>
</g>
</svg>
